<svg id="Layer_1" data-name="Layer 1" xmlns="http://www.w3.org/2000/svg" viewBox="0 0 500 500"><defs><style>.cls-1{fill:none;stroke:#fff;stroke-linecap:round;stroke-linejoin:round;stroke-width:3px;}.cls-2{fill:#fff;}</style></defs><g id="ICON"><path class="cls-1" d="M120.28,378c-8.37,0-13.37.58-38.07,25.81S2,478.44,2,361.2,61.78,232.27,91,232.27s33.3,14.85,48.59,14.85h41c15.29,0,19.35-14.85,48.59-14.85s89,11.69,89,128.93S262.68,429.08,238,403.84,208.32,378,200,378H153.14"/><path class="cls-1" d="M112.89,298.77H96.25V282.13A6.29,6.29,0,0,0,90,275.85H78.61a6.29,6.29,0,0,0-6.28,6.28v16.64H55.7a6.3,6.3,0,0,0-6.29,6.28v11.36a6.3,6.3,0,0,0,6.29,6.28H72.33v16.63a6.29,6.29,0,0,0,6.28,6.29H90a6.29,6.29,0,0,0,6.28-6.29V322.69h16.64a6.29,6.29,0,0,0,6.28-6.28V305.05A6.29,6.29,0,0,0,112.89,298.77Z"/><circle class="cls-1" cx="254.05" cy="283.58" r="18.35"/><circle class="cls-1" cx="254.05" cy="334.12" r="18.35"/><circle class="cls-1" cx="211.11" cy="310.73" r="18.35"/><path class="cls-1" d="M207.34,209.35A145.33,145.33,0,1,1,352.67,354.68"/><path class="cls-1" d="M242.12,209.35A110.55,110.55,0,1,1,352.67,319.9"/><path class="cls-2" d="M344.61,288.79v-29c-5.95-1-10.66-2.79-14.08-5.48a30.29,30.29,0,0,1-8.17-9.54H311.64V229.28h22.58v1l.17-.1c0,4.87,1.68,8.56,5,11.12s8.34,3.83,14.95,3.83c6,0,10.76-1.18,14.29-3.5a11.37,11.37,0,0,0,5.27-10,8.74,8.74,0,0,0-1.75-5.57,14.11,14.11,0,0,0-4.4-3.73,26.09,26.09,0,0,0-5.91-2.39c-2.15-.6-4.24-1.18-6.22-1.71L339.8,214a45.73,45.73,0,0,1-9.44-3.56,28.08,28.08,0,0,1-7.43-5.44,22.53,22.53,0,0,1-4.8-7.66,28.3,28.3,0,0,1-1.72-10.25,24.61,24.61,0,0,1,1.89-9.68,23.76,23.76,0,0,1,5.47-7.86,29.4,29.4,0,0,1,8.87-5.68,47.15,47.15,0,0,1,11.93-3.23V130h17.74v30.78a36.57,36.57,0,0,1,13.24,4.87,31.31,31.31,0,0,1,9,8.37h9.11v15.49H374.85l-2.08.27v-.34h-.17v-2a13.93,13.93,0,0,0-5.85-9.44c-3.29-2.39-7.69-3.6-13.14-3.6-6.55,0-11.52,1.08-14.95,3.19a9.88,9.88,0,0,0-5.14,8.77,10,10,0,0,0,1.68,6,12.47,12.47,0,0,0,4.2,3.63,22.32,22.32,0,0,0,5.54,2.15c2,.51,3.93,1,5.82,1.58l15.65,4.77a71.31,71.31,0,0,1,10.66,4.1,31.38,31.38,0,0,1,8,5.35,21.77,21.77,0,0,1,5,7.15,24.13,24.13,0,0,1,1.74,9.58,25.38,25.38,0,0,1-2.11,10.38,27,27,0,0,1-6,8.6,34.94,34.94,0,0,1-9.31,6.39,44.5,44.5,0,0,1-12,3.7v29H344.61Z"/></g></svg>