<svg id="Layer_1" data-name="Layer 1" xmlns="http://www.w3.org/2000/svg" viewBox="0 0 500 500"><defs><style>.cls-1{fill:none;stroke:#fff;stroke-linecap:round;stroke-linejoin:round;stroke-width:3px;}</style></defs><g id="ICON"><path class="cls-1" d="M352.82,268.12a72.56,72.56,0,0,0,72.58-72.58V86.68a36.31,36.31,0,0,0-36.29-36.29H110.89A36.31,36.31,0,0,0,74.6,86.68V195.54a72.56,72.56,0,0,0,72.58,72.58Z"/><line class="cls-1" x1="183.47" y1="50.39" x2="183.47" y2="304.41"/><line class="cls-1" x1="316.53" y1="50.39" x2="316.53" y2="304.46"/><line class="cls-1" x1="219.76" y1="268.12" x2="280.24" y2="268.12"/><polyline class="cls-1" points="86.7 292.31 86.7 498 413.3 498 413.3 243.93"/><path class="cls-1" d="M159.28,498V401.23a36.31,36.31,0,0,1,36.29-36.29H304.43a36.31,36.31,0,0,1,36.29,36.29V498"/><polyline class="cls-1" points="207.66 437.47 207.66 413.28 292.34 413.28"/><path class="cls-1" d="M86.7,340.7H50.41A36.31,36.31,0,0,0,14.12,377v24.19H74.6"/><path class="cls-1" d="M26.22,401.18v60.49A36.31,36.31,0,0,0,62.5,498H86.7"/><path class="cls-1" d="M413.3,340.7h36.29A36.31,36.31,0,0,1,485.88,377v24.19H425.4"/><path class="cls-1" d="M473.78,401.18v60.49A36.31,36.31,0,0,1,437.5,498H413.3"/><polyline class="cls-1" points="74.6 86.67 26.21 86.67 26.21 195.54 74.6 195.54"/><polyline class="cls-1" points="425.4 195.54 473.79 195.54 473.79 86.67 425.4 86.67"/><path class="cls-1" d="M207.66,50.39V44.52A42.52,42.52,0,0,1,250.18,2h0a42.14,42.14,0,0,1,42.16,42.16v6.23"/></g></svg>