<?xml version="1.0" standalone="no"?>
<!DOCTYPE svg PUBLIC "-//W3C//DTD SVG 20010904//EN"
 "http://www.w3.org/TR/2001/REC-SVG-20010904/DTD/svg10.dtd">
<svg version="1.0" xmlns="http://www.w3.org/2000/svg"
 width="928.000000pt" height="928.000000pt" viewBox="0 0 928.000000 928.000000"
 preserveAspectRatio="xMidYMid meet">
<metadata>
Created by potrace 1.14, written by Peter Selinger 2001-2017
</metadata>
<g transform="translate(0.000000,928.000000) scale(0.100000,-0.100000)"
fill="#000000" stroke="none">
<path d="M6705 8674 c-76 -40 -99 -83 -91 -173 4 -36 6 -92 6 -125 -3 -139
102 -252 349 -376 171 -85 314 -191 297 -218 -18 -30 -185 -42 -307 -23 -116
18 -147 19 -165 7 -15 -12 -15 -16 10 -58 31 -53 33 -68 7 -68 -10 0 -21 -9
-24 -20 -6 -21 -15 -23 -110 -22 -221 3 -696 199 -902 371 -182 152 -248 182
-385 176 l-86 -3 -23 33 c-45 66 -135 146 -200 178 -58 28 -75 32 -146 31 -47
0 -94 -7 -114 -15 -34 -15 -36 -14 -115 33 -108 65 -216 99 -338 105 -167 9
-306 -32 -468 -139 -51 -33 -114 -67 -139 -75 -55 -17 -161 -15 -242 4 -125
29 -346 121 -465 194 -164 100 -461 98 -598 -6 -145 -109 -95 -280 129 -445
33 -24 85 -65 115 -91 122 -103 262 -174 402 -205 117 -26 333 -21 518 11 254
43 482 55 590 30 152 -36 286 -104 278 -141 -9 -49 -119 -55 -278 -14 -150 38
-283 34 -393 -13 -21 -9 -75 -44 -121 -77 -107 -78 -124 -82 -211 -59 -288 77
-372 89 -433 64 -62 -27 -66 -116 -11 -231 32 -69 78 -114 147 -147 25 -12 62
-37 81 -56 75 -72 168 -92 424 -94 106 0 216 -5 245 -10 47 -8 55 -13 67 -40
65 -158 -24 -350 -224 -484 -206 -137 -484 -206 -799 -196 -158 5 -254 25
-316 66 -121 80 -205 178 -331 381 -162 263 -326 429 -466 470 -26 8 -68 30
-95 49 -142 100 -276 96 -376 -11 -102 -109 -83 -251 57 -424 63 -78 181 -171
248 -197 122 -45 217 -129 217 -191 0 -33 -31 -63 -88 -86 l-44 -17 -44 32
c-24 17 -64 45 -88 62 -51 36 -70 32 -60 -14 l6 -31 -28 19 c-16 10 -65 45
-108 77 -44 32 -84 57 -90 55 -12 -4 -13 -33 -2 -94 5 -26 4 -43 -2 -43 -5 0
-58 48 -118 108 -155 153 -282 231 -479 293 -55 17 -115 38 -134 46 -398 174
-650 94 -640 -204 6 -169 64 -294 199 -421 132 -125 373 -239 625 -295 403
-90 475 -100 685 -101 102 0 230 3 285 6 122 7 168 -3 311 -72 478 -232 805
-684 678 -939 -30 -59 -91 -106 -153 -117 -64 -12 -192 35 -271 101 -46 39
-160 96 -230 115 -43 12 -172 21 -346 23 -70 1 -84 -2 -110 -22 -85 -67 -69
-170 46 -281 103 -99 264 -160 422 -160 35 0 103 -7 152 -15 164 -26 261 -95
308 -217 49 -128 18 -401 -64 -562 -74 -145 -218 -276 -310 -281 -124 -7 -268
54 -386 162 -135 125 -425 259 -639 296 -96 16 -199 13 -249 -8 -23 -9 -68
-15 -120 -15 -258 0 -324 -148 -188 -423 116 -235 348 -377 675 -412 30 -4 60
-8 67 -10 11 -4 109 -8 547 -20 161 -5 220 -9 290 -20 17 -2 48 -7 70 -11 191
-29 349 -183 525 -509 127 -236 187 -318 261 -355 50 -26 81 -25 175 6 198 65
381 5 510 -169 70 -95 104 -213 89 -312 -6 -43 -7 -45 -58 -60 -105 -31 -183
-33 -882 -24 -247 3 -251 3 -297 -20 -45 -23 -82 -73 -76 -101 2 -7 -13 -14
-37 -17 -56 -6 -123 -40 -139 -72 -34 -65 6 -170 106 -277 142 -151 330 -257
534 -299 76 -16 236 -21 299 -10 111 20 230 73 388 174 156 99 251 143 358
165 138 29 222 -10 282 -129 8 -17 31 -76 50 -132 65 -186 95 -225 170 -217
72 8 108 22 337 131 299 143 439 175 635 147 206 -30 461 -10 890 72 257 48
556 101 680 119 328 49 650 224 941 513 220 219 394 472 489 711 46 117 65
220 60 334 -8 186 -61 308 -190 443 l-85 89 50 49 c54 53 63 83 32 116 -58 63
-150 -5 -157 -115 0 -14 -73 -6 -110 11 -58 27 -111 86 -120 134 -4 21 26 158
40 180 3 5 6 30 7 55 1 55 -18 81 -54 72 -36 -9 -47 -45 -47 -154 -1 -186 -14
-214 -158 -338 -128 -110 -222 -209 -252 -267 -21 -39 -89 -104 -98 -94 -3 2
0 13 5 23 5 10 12 38 16 62 3 24 21 77 40 117 50 105 100 229 126 309 43 138
61 224 87 416 15 117 7 459 -13 576 -6 30 3 24 110 -82 179 -177 332 -290 449
-331 147 -52 314 -3 455 135 75 73 115 127 160 216 56 112 204 290 289 347 36
25 54 64 78 172 24 104 30 176 30 356 0 193 -11 248 -65 322 -20 29 -44 67
-53 85 -20 37 -63 185 -72 240 -3 21 -8 50 -10 63 -3 14 -8 45 -11 70 -16 113
-85 270 -191 429 -130 195 -252 333 -603 681 -191 190 -370 374 -398 410 -103
134 -184 292 -269 525 -116 319 -321 568 -568 692 -132 67 -267 90 -330 57z"/>
</g>
</svg>
